<?xml version="1.0" encoding="UTF-8" standalone="no"?>
<svg
   xmlns:dc="http://purl.org/dc/elements/1.1/"
   xmlns:cc="http://creativecommons.org/ns#"
   xmlns:rdf="http://www.w3.org/1999/02/22-rdf-syntax-ns#"
   xmlns:svg="http://www.w3.org/2000/svg"
   xmlns="http://www.w3.org/2000/svg"
   xmlns:sodipodi="http://sodipodi.sourceforge.net/DTD/sodipodi-0.dtd"
   xmlns:inkscape="http://www.inkscape.org/namespaces/inkscape"
   inkscape:version="1.0 (4035a4f, 2020-05-01)"
   sodipodi:docname="downtown.svg"
   id="svg40"
   version="1.1"
   viewBox="0 0 233 69"
   height="69"
   width="233">
  <metadata
     id="metadata46">
    <rdf:RDF>
      <cc:Work
         rdf:about="">
        <dc:format>image/svg+xml</dc:format>
        <dc:type
           rdf:resource="http://purl.org/dc/dcmitype/StillImage" />
      </cc:Work>
    </rdf:RDF>
  </metadata>
  <defs
     id="defs44" />
  <sodipodi:namedview
     inkscape:current-layer="g38"
     inkscape:window-maximized="0"
     inkscape:window-y="25"
     inkscape:window-x="0"
     inkscape:cy="34.5"
     inkscape:cx="116.5"
     inkscape:zoom="2.4635193"
     showgrid="false"
     id="namedview42"
     inkscape:window-height="950"
     inkscape:window-width="1680"
     inkscape:pageshadow="2"
     inkscape:pageopacity="0"
     guidetolerance="10"
     gridtolerance="10"
     objecttolerance="10"
     borderopacity="1"
     bordercolor="#666666"
     pagecolor="#ffffff" />
  <g
     id="g38"
     fill-rule="evenodd"
     fill="none">
    <path
       id="path10"
       d="M85.353 59.444C87.225 59.444 88.092 58.577 88.32 57.184 88.548 55.769 87.978 54.856 86.083 54.856L83.595 54.856 82.83 59.444 85.353 59.444zM82.385 53.6L86.334 53.6C89.073 53.6 90.055 55.107 89.713 57.184 89.456 58.725 88.554 59.946 86.973 60.46L88.822 65.288 87.179 65.288 85.467 60.716C85.369 60.722 85.273 60.722 85.17 60.722L82.619 60.722 81.859 65.288 80.445 65.288 82.385 53.6 82.385 53.6zM97.214 60.197C97.471 58.714 96.717 57.618 95.25 57.618 93.778 57.618 92.483 58.953 92.215 60.197L97.214 60.197zM90.754 60.973C91.193 58.28 93.088 56.408 95.456 56.408 97.288 56.408 99.045 57.526 98.492 60.791L98.401 61.362 92.027 61.362C91.701 63.507 92.603 64.26 94.292 64.26 95.37 64.26 96.215 63.804 96.711 62.891L97.944 63.256C97.311 64.58 95.872 65.47 94.086 65.47 91.558 65.47 90.303 63.667 90.754 60.973L90.754 60.973zM106.564 60.837C106.878 58.942 106.164 57.618 104.532 57.618 102.809 57.618 101.793 59.056 101.496 60.837 101.194 62.663 101.805 63.941 103.505 63.941 105.114 63.941 106.244 62.777 106.564 60.837zM99.487 67L100.697 66.247C100.971 66.731 101.348 67.571 102.957 67.571 104.361 67.571 105.536 66.909 105.787 65.448L106.062 63.667 105.947 63.667C105.582 64.146 104.869 65.151 103.162 65.151 101.034 65.151 99.693 63.598 100.15 60.859 100.589 58.166 102.409 56.408 104.623 56.408 106.336 56.408 106.712 57.458 106.929 57.915L107.067 57.915 107.294 56.522 108.596 56.522 107.111 65.539C106.735 67.798 104.886 68.757 102.797 68.757 100.828 68.757 99.893 67.919 99.487 67L99.487 67zM111.177 54.126C111.177 53.623 111.61 53.213 112.136 53.213 112.66 53.213 113.094 53.623 113.094 54.126 113.094 54.628 112.66 55.039 112.136 55.039 111.61 55.039 111.177 54.628 111.177 54.126zM111.051 56.522L112.398 56.522 110.937 65.288 109.59 65.288 111.051 56.522 111.051 56.522zM120.338 60.859C120.612 59.147 120.087 57.618 118.329 57.618 116.481 57.618 115.333 59.239 115.042 61.042 114.769 62.753 115.293 64.26 117.051 64.26 118.901 64.26 120.047 62.669 120.338 60.859zM113.741 60.859C114.175 58.166 116.024 56.408 118.353 56.408 120.772 56.408 122.09 58.257 121.64 61.042 121.205 63.713 119.357 65.47 117.028 65.47 114.609 65.47 113.296 63.622 113.741 60.859L113.741 60.859zM124.324 65.288L122.978 65.288 124.439 56.522 125.74 56.522 125.512 57.891 125.626 57.891C126.174 57.002 127.11 56.408 128.434 56.408 130.192 56.408 131.219 57.481 130.854 59.717L129.917 65.288 128.57 65.288 129.484 59.809C129.712 58.44 129.096 57.618 127.84 57.618 126.539 57.618 125.466 58.485 125.193 60.014L124.324 65.288M138.149 62.115L138.354 60.882C138.08 61.156 136.527 61.316 135.957 61.384 134.885 61.521 133.88 61.84 133.72 62.868 133.561 63.804 134.245 64.284 135.319 64.284 136.916 64.284 137.966 63.211 138.149 62.115zM132.373 62.799C132.716 60.791 134.542 60.425 136.208 60.22 137.829 60.014 138.491 60.06 138.606 59.422L138.606 59.376C138.788 58.257 138.331 57.595 137.099 57.595 135.82 57.595 134.953 58.28 134.542 58.919L133.355 58.463C134.291 56.865 135.889 56.408 137.213 56.408 138.331 56.408 140.386 56.727 139.929 59.512L138.971 65.288 137.623 65.288 137.829 64.1 137.761 64.1C137.396 64.672 136.459 65.493 134.93 65.493 133.264 65.493 132.1 64.511 132.373 62.799L132.373 62.799z"
       fill="#000" />
    <polyline
       id="polyline12"
       points="142.774 65.288 141.427 65.288 143.367 53.6 144.714 53.6 142.774 65.288"
       fill="#000" />
    <path
       id="path14"
       d="M154.75 57.595C155.481 57.161 155.984 56.727 156.12 55.928 156.211 55.335 155.755 54.65 154.91 54.65 154.02 54.65 153.273 55.426 153.152 56.157 153.044 56.807 153.432 57.464 153.895 58.166L154.75 57.595zM153.381 59.946L152.902 60.266C151.72 61.053 151.28 61.864 151.236 62.183 151.053 63.279 151.806 64.26 153.198 64.26 154.009 64.26 154.876 63.923 155.618 63.319L153.381 59.946zM149.865 62.183C150.088 60.768 151.184 59.889 152.707 58.942 152.069 57.971 151.641 57.173 151.806 56.134 152.057 54.559 153.358 53.486 155.07 53.486 156.828 53.486 157.718 54.628 157.489 55.928 157.307 57.048 156.571 57.818 155.504 58.531L154.551 59.165 156.571 62.269C156.971 61.681 157.267 60.973 157.399 60.174L158.699 60.174C158.42 61.84 157.78 62.771 157.267 63.331L158.54 65.288 156.919 65.288 156.263 64.294C155.372 65.071 154.111 65.448 153.038 65.448 150.733 65.448 149.546 64.078 149.865 62.183L149.865 62.183zM168.41 64.032C171.31 64.032 173.022 62.229 173.501 59.33 173.981 56.545 172.907 54.856 170.168 54.856L167.857 54.856 166.339 64.032 168.41 64.032zM164.712 65.288L166.652 53.6 170.373 53.6C173.775 53.6 175.464 55.838 174.848 59.512 174.254 63.119 171.926 65.288 168.364 65.288L164.712 65.288 164.712 65.288zM177.656 54.126C177.656 53.623 178.09 53.213 178.615 53.213 179.14 53.213 179.573 53.623 179.573 54.126 179.573 54.628 179.14 55.039 178.615 55.039 178.09 55.039 177.656 54.628 177.656 54.126zM177.53 56.522L178.877 56.522 177.416 65.288 176.069 65.288 177.53 56.522 177.53 56.522zM186.635 60.837C186.949 58.942 186.236 57.618 184.604 57.618 182.88 57.618 181.864 59.056 181.568 60.837 181.265 62.663 181.876 63.941 183.576 63.941 185.186 63.941 186.316 62.777 186.635 60.837zM179.559 67L180.769 66.247C181.042 66.731 181.419 67.571 183.028 67.571 184.433 67.571 185.608 66.909 185.86 65.448L186.133 63.667 186.019 63.667C185.653 64.146 184.941 65.151 183.234 65.151 181.106 65.151 179.764 63.598 180.221 60.859 180.66 58.166 182.481 56.408 184.694 56.408 186.406 56.408 186.783 57.458 187 57.915L187.137 57.915 187.365 56.522 188.667 56.522 187.183 65.539C186.807 67.798 184.957 68.757 182.868 68.757 180.9 68.757 179.964 67.919 179.559 67L179.559 67zM191.249 54.126C191.249 53.623 191.683 53.213 192.208 53.213 192.733 53.213 193.166 53.623 193.166 54.126 193.166 54.628 192.733 55.039 192.208 55.039 191.683 55.039 191.249 54.628 191.249 54.126zM191.123 56.522L192.47 56.522 191.009 65.288 189.662 65.288 191.123 56.522 191.123 56.522zM198.562 57.664L196.673 57.664 195.822 62.777C195.64 63.919 196.188 64.1 196.781 64.1 197.078 64.1 197.26 64.055 197.374 64.032L197.466 65.242C197.26 65.31 196.918 65.402 196.416 65.402 195.275 65.402 194.179 64.672 194.43 63.142L195.331 57.664 194.019 57.664 194.201 56.522 195.52 56.522 195.868 54.423 197.215 54.423 196.866 56.522 198.744 56.522 198.562 57.664M205.084 62.115L205.289 60.882C205.016 61.156 203.463 61.316 202.893 61.384 201.82 61.521 200.816 61.84 200.655 62.868 200.496 63.804 201.181 64.284 202.254 64.284 203.852 64.284 204.902 63.211 205.084 62.115zM199.309 62.799C199.652 60.791 201.478 60.425 203.144 60.22 204.765 60.014 205.427 60.06 205.541 59.422L205.541 59.376C205.724 58.257 205.267 57.595 204.034 57.595 202.756 57.595 201.889 58.28 201.478 58.919L200.29 58.463C201.227 56.865 202.824 56.408 204.149 56.408 205.267 56.408 207.321 56.727 206.864 59.512L205.906 65.288 204.559 65.288 204.765 64.1 204.696 64.1C204.331 64.672 203.395 65.493 201.865 65.493 200.199 65.493 199.035 64.511 199.309 62.799L199.309 62.799z"
       fill="#000" />
    <polyline
       id="polyline16"
       points="209.709 65.288 208.362 65.288 210.303 53.6 211.65 53.6 209.709 65.288"
       fill="#000" />
    <path
       id="path28"
       d="M34.106,29.76 L34.105,29.76 C26.259,22.384 22.336,16.529 22.336,12.196 C22.336,5.696 27.606,0.426 34.106,0.426 C40.606,0.426 45.875,5.696 45.875,12.196 C45.875,16.529 41.952,22.384 34.106,29.76 M34.106,5.965 C31.047,5.965 28.567,8.445 28.567,11.503 C28.567,14.562 31.047,17.043 34.106,17.043 C37.164,17.043 39.645,14.562 39.645,11.503 C39.645,8.445 37.164,5.965 34.106,5.965"
       fill="#FFC117" />
    <path
       id="path30"
       d="M23.028,66.683 C12.824,63.383 4.613,55.655 0.664,45.759 L16.305,31.574 C17.36,30.617 18.692,30.138 20.026,30.138 C21.339,30.138 22.652,30.603 23.701,31.534 L33.983,40.657 L24.846,48.945 C23.689,49.995 23.028,51.485 23.028,53.048 L23.028,66.683"
       fill="#66F" />
    <path
       id="path32"
       d="M45.183,66.683 L45.183,53.085 C45.183,51.501 44.505,49.993 43.32,48.941 L33.983,40.657 L43.998,31.574 C45.053,30.617 46.386,30.138 47.719,30.138 C49.032,30.138 50.346,30.603 51.396,31.534 L67.516,45.837 C63.555,55.696 55.36,63.391 45.183,66.683"
       fill="#55EBA7" />
    <path
       id="path34"
       d="M34.106,68.429 C33.191,68.429 32.283,68.391 31.386,68.324 L31.252,68.316 C30.411,68.251 29.582,68.149 28.759,68.026 C28.651,68.01 28.542,67.998 28.435,67.981 C27.674,67.861 26.925,67.709 26.181,67.542 C26.015,67.505 25.847,67.471 25.682,67.431 C24.982,67.263 24.292,67.068 23.609,66.86 C23.421,66.803 23.232,66.75 23.045,66.69 L23.028,66.683 L23.028,53.048 C23.028,51.485 23.689,49.995 24.846,48.945 L33.983,40.657 L43.32,48.941 C44.505,49.993 45.183,51.501 45.183,53.085 L45.183,66.683 L45.155,66.693 C44.964,66.755 44.77,66.809 44.576,66.868 C43.897,67.075 43.212,67.268 42.516,67.434 C42.349,67.475 42.178,67.508 42.01,67.546 C41.271,67.712 40.525,67.862 39.77,67.982 C39.659,68 39.547,68.012 39.437,68.028 C38.617,68.15 37.792,68.251 36.956,68.316 L36.816,68.325 C35.921,68.391 35.018,68.429 34.106,68.429"
       fill="#4D4DFF" />
    <path
       id="path36"
       d="M43.32,48.941 L33.983,40.657 L24.846,48.945 C23.689,49.995 23.028,51.485 23.028,53.048 L23.028,66.683 L23.045,66.69 C23.232,66.75 23.421,66.803 23.608,66.86 C24.292,67.068 24.982,67.263 25.682,67.431 C25.847,67.471 26.015,67.505 26.181,67.542 C26.925,67.709 27.674,67.861 28.435,67.981 C28.542,67.998 28.651,68.01 28.759,68.026 C29.582,68.149 30.411,68.251 31.252,68.316 L31.386,68.324 C32.283,68.391 33.191,68.429 34.106,68.429 C35.018,68.429 35.921,68.391 36.816,68.325 L36.956,68.316 C37.792,68.251 38.617,68.15 39.437,68.028 C39.547,68.012 39.659,68 39.77,67.982 C40.525,67.862 41.271,67.712 42.01,67.546 C42.178,67.508 42.349,67.475 42.516,67.434 C43.212,67.268 43.897,67.075 44.576,66.868 C44.77,66.809 44.964,66.755 45.155,66.693 L45.183,66.683 L45.183,53.085 C45.183,51.501 44.505,49.993 43.32,48.941"
       fill="#1156C6" />
    <text
       id="text50"
       y="34.097561"
       x="80.77874"
       style="font-style:normal;font-weight:normal;font-size:40px;line-height:1.25;font-family:sans-serif;fill:#000000;fill-opacity:1;stroke:none"
       xml:space="preserve"><tspan
         style="font-style:normal;font-variant:normal;font-weight:normal;font-stretch:normal;font-family:'Times New Roman';-inkscape-font-specification:'Times New Roman, '"
         y="34.097561"
         x="80.77874"
         id="tspan48"
         sodipodi:role="line">Mödling</tspan></text>
  </g>
</svg>
